<mxfile host="app.diagrams.net" agent="Mozilla/5.0 (Macintosh; Intel Mac OS X 10_15_7) AppleWebKit/605.1.15 (KHTML, like Gecko) Version/18.0.1 Safari/605.1.15" version="24.7.17">
  <diagram id="6a731a19-8d31-9384-78a2-239565b7b9f0" name="Page-1">
    <mxGraphModel dx="1116" dy="900" grid="1" gridSize="10" guides="1" tooltips="1" connect="1" arrows="1" fold="1" page="1" pageScale="1" pageWidth="827" pageHeight="1169" background="none" math="0" shadow="0">
      <root>
        <mxCell id="0" />
        <mxCell id="1" parent="0" />
        <mxCell id="etZXavy220nCvrPvPZK2-2272" value="Install packages" style="swimlane;fontStyle=0;childLayout=stackLayout;horizontal=1;startSize=30;horizontalStack=0;resizeParent=1;resizeParentMax=0;resizeLast=0;collapsible=1;marginBottom=0;whiteSpace=wrap;html=1;strokeColor=#D0CEE2;fontColor=#1A1A1A;fillColor=#5D7F99;" vertex="1" parent="1">
          <mxGeometry x="200" y="150" width="120" height="160" as="geometry" />
        </mxCell>
        <mxCell id="etZXavy220nCvrPvPZK2-2277" value="&lt;font style=&quot;font-size: 10px;&quot;&gt;*update cache*&lt;/font&gt;&lt;div&gt;&lt;font style=&quot;font-size: 10px;&quot;&gt;*upgrade: true*&lt;/font&gt;&lt;/div&gt;" style="text;strokeColor=none;fillColor=none;align=left;verticalAlign=middle;spacingLeft=4;spacingRight=4;overflow=hidden;points=[[0,0.5],[1,0.5]];portConstraint=eastwest;rotatable=0;whiteSpace=wrap;html=1;fontColor=#1A1A1A;" vertex="1" parent="etZXavy220nCvrPvPZK2-2272">
          <mxGeometry y="30" width="120" height="40" as="geometry" />
        </mxCell>
        <mxCell id="etZXavy220nCvrPvPZK2-2273" value="git" style="text;strokeColor=none;fillColor=none;align=left;verticalAlign=middle;spacingLeft=4;spacingRight=4;overflow=hidden;points=[[0,0.5],[1,0.5]];portConstraint=eastwest;rotatable=0;whiteSpace=wrap;html=1;fontColor=#1A1A1A;" vertex="1" parent="etZXavy220nCvrPvPZK2-2272">
          <mxGeometry y="70" width="120" height="30" as="geometry" />
        </mxCell>
        <mxCell id="etZXavy220nCvrPvPZK2-2274" value="ssh (client/server)" style="text;strokeColor=none;fillColor=none;align=left;verticalAlign=middle;spacingLeft=4;spacingRight=4;overflow=hidden;points=[[0,0.5],[1,0.5]];portConstraint=eastwest;rotatable=0;whiteSpace=wrap;html=1;fontColor=#1A1A1A;" vertex="1" parent="etZXavy220nCvrPvPZK2-2272">
          <mxGeometry y="100" width="120" height="30" as="geometry" />
        </mxCell>
        <mxCell id="etZXavy220nCvrPvPZK2-2275" value="curl" style="text;strokeColor=none;fillColor=none;align=left;verticalAlign=middle;spacingLeft=4;spacingRight=4;overflow=hidden;points=[[0,0.5],[1,0.5]];portConstraint=eastwest;rotatable=0;whiteSpace=wrap;html=1;fontColor=#1A1A1A;" vertex="1" parent="etZXavy220nCvrPvPZK2-2272">
          <mxGeometry y="130" width="120" height="30" as="geometry" />
        </mxCell>
        <mxCell id="etZXavy220nCvrPvPZK2-2289" style="edgeStyle=orthogonalEdgeStyle;rounded=0;orthogonalLoop=1;jettySize=auto;html=1;exitX=1;exitY=0.5;exitDx=0;exitDy=0;entryX=0;entryY=0.5;entryDx=0;entryDy=0;strokeColor=#736CA8;fontColor=#1A1A1A;" edge="1" parent="1" source="etZXavy220nCvrPvPZK2-2282" target="etZXavy220nCvrPvPZK2-2284">
          <mxGeometry relative="1" as="geometry" />
        </mxCell>
        <mxCell id="etZXavy220nCvrPvPZK2-2282" value="atlas setup" style="ellipse;whiteSpace=wrap;html=1;strokeColor=#D0CEE2;fontColor=#1A1A1A;fillColor=#5D7F99;" vertex="1" parent="1">
          <mxGeometry x="40" y="40" width="120" height="80" as="geometry" />
        </mxCell>
        <mxCell id="etZXavy220nCvrPvPZK2-2287" style="edgeStyle=orthogonalEdgeStyle;rounded=0;orthogonalLoop=1;jettySize=auto;html=1;exitX=0.5;exitY=1;exitDx=0;exitDy=0;entryX=0.5;entryY=0;entryDx=0;entryDy=0;strokeColor=#736CA8;fontColor=#1A1A1A;" edge="1" parent="1" source="etZXavy220nCvrPvPZK2-2284" target="etZXavy220nCvrPvPZK2-2272">
          <mxGeometry relative="1" as="geometry" />
        </mxCell>
        <mxCell id="etZXavy220nCvrPvPZK2-2284" value="ubuntu-setup" style="rounded=0;whiteSpace=wrap;html=1;strokeColor=#D0CEE2;fontColor=#1A1A1A;fillColor=#5D7F99;" vertex="1" parent="1">
          <mxGeometry x="200" y="50" width="120" height="60" as="geometry" />
        </mxCell>
        <mxCell id="etZXavy220nCvrPvPZK2-2301" style="edgeStyle=orthogonalEdgeStyle;rounded=0;orthogonalLoop=1;jettySize=auto;html=1;exitX=0.5;exitY=1;exitDx=0;exitDy=0;entryX=0.5;entryY=0;entryDx=0;entryDy=0;strokeColor=#736CA8;fontColor=#1A1A1A;" edge="1" parent="1" source="etZXavy220nCvrPvPZK2-2290" target="etZXavy220nCvrPvPZK2-2296">
          <mxGeometry relative="1" as="geometry" />
        </mxCell>
        <mxCell id="etZXavy220nCvrPvPZK2-2310" style="edgeStyle=orthogonalEdgeStyle;rounded=0;orthogonalLoop=1;jettySize=auto;html=1;exitX=1;exitY=0.5;exitDx=0;exitDy=0;entryX=0;entryY=0.5;entryDx=0;entryDy=0;strokeColor=#736CA8;fontColor=#1A1A1A;" edge="1" parent="1" source="etZXavy220nCvrPvPZK2-2290" target="etZXavy220nCvrPvPZK2-2305">
          <mxGeometry relative="1" as="geometry" />
        </mxCell>
        <mxCell id="etZXavy220nCvrPvPZK2-2290" value="ansible-user-setup" style="rounded=0;whiteSpace=wrap;html=1;strokeColor=#D0CEE2;fontColor=#1A1A1A;fillColor=#5D7F99;" vertex="1" parent="1">
          <mxGeometry x="360" y="50" width="120" height="60" as="geometry" />
        </mxCell>
        <mxCell id="etZXavy220nCvrPvPZK2-2326" style="edgeStyle=orthogonalEdgeStyle;rounded=0;orthogonalLoop=1;jettySize=auto;html=1;exitX=1;exitY=0.5;exitDx=0;exitDy=0;entryX=0;entryY=0.5;entryDx=0;entryDy=0;strokeColor=#736CA8;fontColor=#1A1A1A;" edge="1" parent="1" source="etZXavy220nCvrPvPZK2-2292" target="etZXavy220nCvrPvPZK2-2290">
          <mxGeometry relative="1" as="geometry" />
        </mxCell>
        <mxCell id="etZXavy220nCvrPvPZK2-2292" value="disable root" style="rounded=0;whiteSpace=wrap;html=1;strokeColor=#D0CEE2;fontColor=#1A1A1A;fillColor=#5D7F99;" vertex="1" parent="1">
          <mxGeometry x="200" y="350" width="120" height="60" as="geometry" />
        </mxCell>
        <mxCell id="etZXavy220nCvrPvPZK2-2293" value="" style="endArrow=classic;html=1;rounded=0;strokeColor=#736CA8;fontColor=#1A1A1A;entryX=0.5;entryY=0;entryDx=0;entryDy=0;exitX=0.5;exitY=0.978;exitDx=0;exitDy=0;exitPerimeter=0;" edge="1" parent="1" source="etZXavy220nCvrPvPZK2-2275" target="etZXavy220nCvrPvPZK2-2292">
          <mxGeometry width="50" height="50" relative="1" as="geometry">
            <mxPoint x="259.67" y="320" as="sourcePoint" />
            <mxPoint x="259.67" y="360" as="targetPoint" />
          </mxGeometry>
        </mxCell>
        <mxCell id="etZXavy220nCvrPvPZK2-2296" value="ansible user" style="swimlane;fontStyle=0;childLayout=stackLayout;horizontal=1;startSize=30;horizontalStack=0;resizeParent=1;resizeParentMax=0;resizeLast=0;collapsible=1;marginBottom=0;whiteSpace=wrap;html=1;strokeColor=#D0CEE2;fontColor=#1A1A1A;fillColor=#5D7F99;" vertex="1" parent="1">
          <mxGeometry x="360" y="150" width="120" height="150" as="geometry" />
        </mxCell>
        <mxCell id="etZXavy220nCvrPvPZK2-2297" value="create user" style="text;strokeColor=none;fillColor=none;align=left;verticalAlign=middle;spacingLeft=4;spacingRight=4;overflow=hidden;points=[[0,0.5],[1,0.5]];portConstraint=eastwest;rotatable=0;whiteSpace=wrap;html=1;fontColor=#1A1A1A;" vertex="1" parent="etZXavy220nCvrPvPZK2-2296">
          <mxGeometry y="30" width="120" height="30" as="geometry" />
        </mxCell>
        <mxCell id="etZXavy220nCvrPvPZK2-2298" value="add to sudoers" style="text;strokeColor=none;fillColor=none;align=left;verticalAlign=middle;spacingLeft=4;spacingRight=4;overflow=hidden;points=[[0,0.5],[1,0.5]];portConstraint=eastwest;rotatable=0;whiteSpace=wrap;html=1;fontColor=#1A1A1A;" vertex="1" parent="etZXavy220nCvrPvPZK2-2296">
          <mxGeometry y="60" width="120" height="30" as="geometry" />
        </mxCell>
        <mxCell id="etZXavy220nCvrPvPZK2-2299" value="add ssh directory" style="text;strokeColor=none;fillColor=none;align=left;verticalAlign=middle;spacingLeft=4;spacingRight=4;overflow=hidden;points=[[0,0.5],[1,0.5]];portConstraint=eastwest;rotatable=0;whiteSpace=wrap;html=1;fontColor=#1A1A1A;" vertex="1" parent="etZXavy220nCvrPvPZK2-2296">
          <mxGeometry y="90" width="120" height="30" as="geometry" />
        </mxCell>
        <mxCell id="etZXavy220nCvrPvPZK2-2300" value="add to sudoers" style="text;strokeColor=none;fillColor=none;align=left;verticalAlign=middle;spacingLeft=4;spacingRight=4;overflow=hidden;points=[[0,0.5],[1,0.5]];portConstraint=eastwest;rotatable=0;whiteSpace=wrap;html=1;fontColor=#1A1A1A;" vertex="1" parent="etZXavy220nCvrPvPZK2-2296">
          <mxGeometry y="120" width="120" height="30" as="geometry" />
        </mxCell>
        <mxCell id="etZXavy220nCvrPvPZK2-2306" style="edgeStyle=orthogonalEdgeStyle;rounded=0;orthogonalLoop=1;jettySize=auto;html=1;exitX=0.5;exitY=1;exitDx=0;exitDy=0;entryX=0.5;entryY=0;entryDx=0;entryDy=0;strokeColor=#736CA8;fontColor=#1A1A1A;" edge="1" parent="1" source="etZXavy220nCvrPvPZK2-2302" target="etZXavy220nCvrPvPZK2-2304">
          <mxGeometry relative="1" as="geometry" />
        </mxCell>
        <mxCell id="etZXavy220nCvrPvPZK2-2302" value="install-ansible" style="rounded=0;whiteSpace=wrap;html=1;strokeColor=#D0CEE2;fontColor=#1A1A1A;fillColor=#5D7F99;" vertex="1" parent="1">
          <mxGeometry x="680" y="50" width="120" height="60" as="geometry" />
        </mxCell>
        <mxCell id="etZXavy220nCvrPvPZK2-2315" style="edgeStyle=orthogonalEdgeStyle;rounded=0;orthogonalLoop=1;jettySize=auto;html=1;exitX=0.5;exitY=1;exitDx=0;exitDy=0;strokeColor=#736CA8;fontColor=#1A1A1A;" edge="1" parent="1" source="etZXavy220nCvrPvPZK2-2304" target="etZXavy220nCvrPvPZK2-2314">
          <mxGeometry relative="1" as="geometry" />
        </mxCell>
        <mxCell id="etZXavy220nCvrPvPZK2-2304" value="install terraform" style="rounded=0;whiteSpace=wrap;html=1;strokeColor=#D0CEE2;fontColor=#1A1A1A;fillColor=#5D7F99;" vertex="1" parent="1">
          <mxGeometry x="680" y="150" width="120" height="60" as="geometry" />
        </mxCell>
        <mxCell id="etZXavy220nCvrPvPZK2-2309" style="edgeStyle=orthogonalEdgeStyle;rounded=0;orthogonalLoop=1;jettySize=auto;html=1;exitX=0.5;exitY=1;exitDx=0;exitDy=0;entryX=0.5;entryY=0;entryDx=0;entryDy=0;strokeColor=#736CA8;fontColor=#1A1A1A;" edge="1" parent="1" source="etZXavy220nCvrPvPZK2-2305" target="etZXavy220nCvrPvPZK2-2308">
          <mxGeometry relative="1" as="geometry" />
        </mxCell>
        <mxCell id="etZXavy220nCvrPvPZK2-2313" style="edgeStyle=orthogonalEdgeStyle;rounded=0;orthogonalLoop=1;jettySize=auto;html=1;exitX=1;exitY=0.5;exitDx=0;exitDy=0;entryX=0;entryY=0.5;entryDx=0;entryDy=0;strokeColor=#736CA8;fontColor=#1A1A1A;" edge="1" parent="1" source="etZXavy220nCvrPvPZK2-2305" target="etZXavy220nCvrPvPZK2-2302">
          <mxGeometry relative="1" as="geometry" />
        </mxCell>
        <mxCell id="etZXavy220nCvrPvPZK2-2305" value="github-setup" style="rounded=0;whiteSpace=wrap;html=1;strokeColor=#D0CEE2;fontColor=#1A1A1A;fillColor=#5D7F99;" vertex="1" parent="1">
          <mxGeometry x="520" y="50" width="120" height="60" as="geometry" />
        </mxCell>
        <mxCell id="etZXavy220nCvrPvPZK2-2312" style="edgeStyle=orthogonalEdgeStyle;rounded=0;orthogonalLoop=1;jettySize=auto;html=1;exitX=0.5;exitY=1;exitDx=0;exitDy=0;strokeColor=#736CA8;fontColor=#1A1A1A;" edge="1" parent="1" source="etZXavy220nCvrPvPZK2-2308" target="etZXavy220nCvrPvPZK2-2311">
          <mxGeometry relative="1" as="geometry" />
        </mxCell>
        <mxCell id="etZXavy220nCvrPvPZK2-2308" value="pull orbit repo" style="rounded=0;whiteSpace=wrap;html=1;strokeColor=#D0CEE2;fontColor=#1A1A1A;fillColor=#5D7F99;" vertex="1" parent="1">
          <mxGeometry x="520" y="150" width="120" height="60" as="geometry" />
        </mxCell>
        <mxCell id="etZXavy220nCvrPvPZK2-2311" value="install GitHub runner" style="rounded=0;whiteSpace=wrap;html=1;strokeColor=#D0CEE2;fontColor=#1A1A1A;fillColor=#5D7F99;" vertex="1" parent="1">
          <mxGeometry x="520" y="250" width="120" height="60" as="geometry" />
        </mxCell>
        <mxCell id="etZXavy220nCvrPvPZK2-2314" value="install kestra" style="rounded=0;whiteSpace=wrap;html=1;strokeColor=#D0CEE2;fontColor=#1A1A1A;fillColor=#5D7F99;" vertex="1" parent="1">
          <mxGeometry x="680" y="250" width="120" height="60" as="geometry" />
        </mxCell>
        <mxCell id="etZXavy220nCvrPvPZK2-2322" value="" style="endArrow=none;dashed=1;html=1;dashPattern=1 3;strokeWidth=2;rounded=0;strokeColor=#736CA8;fontColor=#1A1A1A;" edge="1" parent="1">
          <mxGeometry width="50" height="50" relative="1" as="geometry">
            <mxPoint x="180" y="450" as="sourcePoint" />
            <mxPoint x="500" y="450" as="targetPoint" />
          </mxGeometry>
        </mxCell>
        <mxCell id="etZXavy220nCvrPvPZK2-2323" value="" style="endArrow=none;dashed=1;html=1;dashPattern=1 3;strokeWidth=2;rounded=0;strokeColor=#736CA8;fontColor=#1A1A1A;" edge="1" parent="1">
          <mxGeometry width="50" height="50" relative="1" as="geometry">
            <mxPoint x="180" y="450" as="sourcePoint" />
            <mxPoint x="180" y="30" as="targetPoint" />
          </mxGeometry>
        </mxCell>
        <mxCell id="etZXavy220nCvrPvPZK2-2324" value="" style="endArrow=none;dashed=1;html=1;dashPattern=1 3;strokeWidth=2;rounded=0;strokeColor=#736CA8;fontColor=#1A1A1A;" edge="1" parent="1">
          <mxGeometry width="50" height="50" relative="1" as="geometry">
            <mxPoint x="500" y="30" as="sourcePoint" />
            <mxPoint x="180" y="30" as="targetPoint" />
          </mxGeometry>
        </mxCell>
        <mxCell id="etZXavy220nCvrPvPZK2-2325" value="" style="endArrow=none;dashed=1;html=1;dashPattern=1 3;strokeWidth=2;rounded=0;strokeColor=#736CA8;fontColor=#1A1A1A;" edge="1" parent="1">
          <mxGeometry width="50" height="50" relative="1" as="geometry">
            <mxPoint x="500" y="450" as="sourcePoint" />
            <mxPoint x="500" y="30" as="targetPoint" />
          </mxGeometry>
        </mxCell>
      </root>
    </mxGraphModel>
  </diagram>
</mxfile>
